<?xml version="1.0" standalone="no"?><!DOCTYPE svg PUBLIC "-//W3C//DTD SVG 1.1//EN" "http://www.w3.org/Graphics/SVG/1.1/DTD/svg11.dtd"><svg class="icon" width="200px" height="200.00px" viewBox="0 0 1024 1024" version="1.1" xmlns="http://www.w3.org/2000/svg"><path fill="#ffffff" d="M792.855154 465.805779c-6.240882-6.208198-14.368821-9.311437-22.560409-9.311437s-16.446822 3.168606-22.687703 9.440452L539.696922 673.674614 539.696922 108.393173c0-17.695686-14.336138-31.99914-32.00086-31.99914s-32.00086 14.303454-32.00086 31.99914l0 563.712619L269.455396 465.941675c-6.271845-6.208198-14.432469-9.34412-22.624056-9.34412-8.224271 0-16.417578 3.135923-22.65674 9.407768-12.511007 12.512727-12.480043 32.768069 0.032684 45.248112l259.328585 259.125601c3.264938 3.263217 7.104421 5.599247 11.136568 7.135385 3.999462 1.792447 8.351566 2.879613 13.023626 2.879613 1.119849 0 2.07972-0.543583 3.19957-0.639914 8.287918 0.063647 16.60852-3.008628 22.976697-9.407768L792.982449 511.053891C805.462492 498.542884 805.429808 478.254858 792.855154 465.805779zM892.561322 875.531353c0 17.664722-14.303454 32.00086-31.99914 32.00086L156.562183 907.532213c-17.664722 0-32.00086-14.334417-32.00086-31.99914 0-17.664722 14.336138-32.00086 32.00086-32.00086l704 0C878.257869 843.532213 892.561322 857.866631 892.561322 875.531353z" /></svg>