<?xml version="1.0" standalone="no"?><!DOCTYPE svg PUBLIC "-//W3C//DTD SVG 1.1//EN" "http://www.w3.org/Graphics/SVG/1.1/DTD/svg11.dtd"><svg t="1524746437694" class="icon" style="" viewBox="0 0 1024 1024" version="1.1" xmlns="http://www.w3.org/2000/svg" p-id="13891" xmlns:xlink="http://www.w3.org/1999/xlink" width="200" height="200"><defs><style type="text/css"></style></defs><path transform="rotate(0)" d="M64.303027 735.848231l373.080044 0L437.38307 288.150746 64.303027 288.150746 64.303027 735.848231zM114.046964 337.894683l273.591145 0 0 348.208587-273.591145 0L114.046964 337.894683zM586.614883 288.150746l0 447.697485 373.081067 0L959.69595 288.150746 586.614883 288.150746zM909.953036 686.104293l-273.591145 0L636.361891 337.894683l273.591145 0L909.953036 686.104293zM561.742403 114.046453c0-27.470655-22.2477-49.743938-49.742914-49.743938-27.446096 0-49.743938 22.273283-49.743938 49.743938 0 18.404162 10.014074 34.461883 24.87248 43.065841L487.128031 866.886683c-14.858406 8.603959-24.87248 24.662703-24.87248 43.065841 0 27.471678 22.297842 49.743938 49.743938 49.743938 27.495214 0 49.742914-22.273283 49.742914-49.743938 0-18.412348-10.000771-34.477232-24.87248-43.079144L536.869922 157.125597C551.741631 148.524708 561.742403 132.459824 561.742403 114.046453z" p-id="13892" fill="#ffffff" style="transform-origin: center;"></path></svg>