<?xml version="1.0" standalone="no"?><!DOCTYPE svg PUBLIC "-//W3C//DTD SVG 1.1//EN" "http://www.w3.org/Graphics/SVG/1.1/DTD/svg11.dtd"><svg t="1521943794969" class="icon" style="" viewBox="0 0 1024 1024" version="1.1" xmlns="http://www.w3.org/2000/svg" p-id="7106" xmlns:xlink="http://www.w3.org/1999/xlink" width="200" height="200"><defs><style type="text/css"></style></defs><path d="M915.651452 189.078838c0-4.248963-2.124481-6.373444-6.373444-6.373444l-106.224066 0L803.053942 84.979253c0-33.991701-27.618257-59.485477-59.485477-59.485477L276.182573 25.493776c-33.991701 0-59.485477 27.618257-59.485477 59.485477l0 97.726141-106.224066 0C106.224066 182.705394 104.099585 184.829876 104.099585 189.078838l0 46.738589c0 4.248963 2.124481 6.373444 6.373444 6.373444l67.983402 0 0 684.082988c0 33.991701 27.618257 59.485477 59.485477 59.485477l541.742739 0c33.991701 0 59.485477-27.618257 59.485477-59.485477L839.170124 242.190871l70.107884 0c4.248963 0 6.373444-2.124481 6.373444-6.373444L915.651452 189.078838zM274.058091 106.224066c0-12.746888 10.622407-23.369295 23.369295-23.369295l422.771784 0c12.746888 0 23.369295 10.622407 23.369295 23.369295l0 76.481328L274.058091 182.705394 274.058091 106.224066zM758.439834 928.39834l-499.253112 0c-12.746888 0-23.369295-10.622407-23.369295-23.369295l0-662.838174 545.991701 0 0 662.838174C781.809129 917.775934 771.186722 928.39834 758.439834 928.39834z" p-id="7107"></path><path d="M410.024896 826.423237l-21.244813 0c-10.622407 0-19.120332-8.497925-19.120332-19.120332l0-446.141079c0-10.622407 8.497925-19.120332 19.120332-19.120332l21.244813 0c10.622407 0 19.120332 8.497925 19.120332 19.120332l0 446.141079C427.020747 820.049793 420.647303 826.423237 410.024896 826.423237z" p-id="7108"></path><path d="M630.970954 826.423237l-21.244813 0c-10.622407 0-19.120332-8.497925-19.120332-19.120332l0-446.141079c0-10.622407 8.497925-19.120332 19.120332-19.120332l21.244813 0c10.622407 0 19.120332 8.497925 19.120332 19.120332l0 446.141079C650.091286 820.049793 641.593361 826.423237 630.970954 826.423237z" p-id="7109"></path></svg>